<?xml version="1.0" encoding="utf-8"?>
<!-- Generator: Adobe Illustrator 23.0.3, SVG Export Plug-In . SVG Version: 6.00 Build 0)  -->
<svg version="1.1" id="Layer_1" xmlns="http://www.w3.org/2000/svg" xmlns:xlink="http://www.w3.org/1999/xlink" x="0px" y="0px"
	 viewBox="0 0 512 256" style="enable-background:new 0 0 512 256;" xml:space="preserve">
<g>
	<g>
		<path style="fill:#666766;" d="M296.01,125.91c-2.92,0-5.62,0.49-8.1,1.46c-2.48,0.97-4.63,2.39-6.43,4.23c-1.8,1.85-3.24,4.14-4.31,6.87
			c-1.07,2.72-1.61,5.89-1.61,9.49c0,7.21,1.9,12.63,5.7,16.28c3.8,3.65,8.71,5.48,14.75,5.48c3.41,0,6.35-0.46,8.83-1.39
			c2.48-0.92,4.7-1.92,6.64-2.99c1.36,0.97,2.46,2.09,3.29,3.36c0.83,1.27,1.24,2.73,1.24,4.38c0,3.31-1.95,6.04-5.84,8.18
			c-3.9,2.14-9.15,3.21-15.77,3.21c-5.55,0-10.63-0.76-15.26-2.27c-4.62-1.51-8.59-3.8-11.9-6.86c-3.31-3.07-5.87-6.89-7.67-11.46
			c-1.81-4.58-2.7-9.88-2.7-15.92c0-6.13,0.97-11.51,2.92-16.13c1.95-4.62,4.6-8.47,7.96-11.54c3.36-3.07,7.27-5.35,11.75-6.86
			c4.47-1.51,9.25-2.26,14.31-2.26c6.52,0,11.73,1.14,15.63,3.43c3.89,2.29,5.84,5.09,5.84,8.4c0,1.56-0.42,2.97-1.24,4.24
			c-0.83,1.27-1.78,2.29-2.85,3.07c-1.95-1.07-4.11-2.07-6.5-2.99C302.31,126.37,299.42,125.91,296.01,125.91"/>
		<path style="fill:#666766;" d="M357.92,111.16c9.54,0,17.16,2.04,22.85,6.13c5.7,4.09,8.54,10.42,8.54,18.98v33.73
			c0,2.34-0.59,4.19-1.75,5.55c-1.17,1.36-2.63,2.58-4.38,3.65c-2.72,1.66-6.18,2.97-10.36,3.95c-4.19,0.97-8.96,1.46-14.31,1.46
			c-9.73,0-17.4-1.88-23-5.62c-5.6-3.74-8.4-9.37-8.4-16.86c0-6.52,2.07-11.51,6.21-14.97c4.14-3.45,10.15-5.57,18.04-6.35l20-2.04
			v-2.63c0-3.7-1.34-6.43-4.02-8.18c-2.68-1.75-6.45-2.63-11.32-2.63c-3.8,0-7.5,0.46-11.1,1.39c-3.6,0.92-6.81,2.07-9.64,3.43
			c-1.07-0.78-1.97-1.82-2.7-3.14c-0.73-1.31-1.1-2.75-1.1-4.31c0-1.94,0.46-3.53,1.39-4.74c0.92-1.21,2.41-2.31,4.45-3.29
			c2.82-1.17,6.04-2.04,9.64-2.63C350.57,111.45,354.22,111.16,357.92,111.16 M358.51,170.59c2.82,0,5.4-0.27,7.74-0.8
			c2.34-0.53,4.04-1.19,5.11-1.97v-16.21l-14.16,1.32c-3.89,0.39-6.86,1.24-8.91,2.55c-2.05,1.31-3.07,3.38-3.07,6.21
			c0,2.83,1.04,5.02,3.14,6.57C350.45,169.81,353.83,170.59,358.51,170.59"/>
		<path style="fill:#666766;" d="M447.88,128.68c-2.38-1.95-5.62-2.92-9.71-2.92c-2.82,0-5.43,0.34-7.81,1.02c-2.38,0.68-4.45,1.56-6.21,2.63
			v52.86c-0.88,0.19-2.04,0.44-3.51,0.73c-1.46,0.29-3.12,0.44-4.96,0.44c-3.41,0-5.94-0.63-7.59-1.9
			c-1.66-1.27-2.48-3.51-2.48-6.72v-46.87c0-2.33,0.48-4.23,1.46-5.7c0.97-1.46,2.48-2.87,4.53-4.23c2.82-1.95,6.57-3.58,11.24-4.89
			c4.67-1.31,9.83-1.97,15.48-1.97c10.03,0,17.79,2.21,23.29,6.64c5.5,4.43,8.25,10.93,8.25,19.49v44.97
			c-0.78,0.19-1.92,0.44-3.43,0.73c-1.51,0.29-3.14,0.44-4.89,0.44c-3.5,0-6.06-0.63-7.67-1.9c-1.6-1.27-2.41-3.51-2.41-6.72v-36.94
			C451.46,133.7,450.27,130.63,447.88,128.68"/>
	</g>
	<g>
		<path style="fill-rule:evenodd;clip-rule:evenodd;fill:#F7943E;" d="M258.18,88.06h-39.74c-2.76,0-5,2.24-5,5v49.6c0,2.83,3.55,4.09,5.33,1.89l41.74-51.6
			C262.1,90.99,260.7,88.06,258.18,88.06z"/>
		<path style="fill-rule:evenodd;clip-rule:evenodd;fill:#F7943E;" d="M182.4,88.06h-36c-2.76,0-5-2.24-5-5V67.02c0-2.76,2.24-5,5-5h101.33c2.67,0,4.01-3.23,2.12-5.12
			l-16.51-16.51c-2.81-2.81-6.63-4.39-10.61-4.39H83.01c-3.98,0-7.79,1.58-10.61,4.39L43.43,69.37C38,74.8,37.55,83.45,42.37,89.41
			l44.6,55.13c1.78,2.2,5.33,0.94,5.33-1.89v-26.55c0-2.76,2.24-5,5-5h16.04c2.76,0,5,2.24,5,5v61.9c0,3.43,1.18,6.76,3.34,9.43
			l19.53,24.14c6,7.42,17.32,7.42,23.32,0l19.53-24.14c2.16-2.67,3.34-6,3.34-9.43V93.06C187.4,90.3,185.16,88.06,182.4,88.06z
			 M123.78,77.47c-1.05,8.26-7.81,15-16.06,16.03c-0.8,0.1-1.6,0.15-2.39,0.15c-4.94,0-9.64-1.92-13.17-5.46
			c-4.1-4.1-6.02-9.78-5.29-15.57c1.05-8.25,7.8-15,16.05-16.04c5.8-0.73,11.47,1.2,15.57,5.31
			C122.59,65.99,124.52,71.67,123.78,77.47z"/>
	</g>
</g>
</svg>
